<svg xmlns="http://www.w3.org/2000/svg" width="1em" height="1em" viewBox="0 0 24 24">
    <path fill="#3071A9" fill-rule="nonzero" d="M16.65 6c-1.863-.007-3.93.572-5.044 1.254-.416.255-.843.54-1.271.842 0 0-3.863 2.955-5.064 4.441-.16.2-.307.414-.434.64l-.027.05a4.473 4.473 0 0 0-.035.065l-.008.017c-.19.385-.334.802-.405 1.223l-.002.011-.006.044c-.064.489-.038 1.01.164 1.452.244.537.652.938 1.242 1.267.57.318 1.61.588 1.61.588l-.016.008c.868.153 1.767.102 2.645.017.43-.042.86-.089 1.291-.143h.017c-.028-.143-.074-.418-.018-.433.59-.156.94-.25 1.4-.409.44-.151.762-.29 1.118-.485.09-.049.16-.13.253-.17.295-.126.623-.155.94-.203.254-.04.51-.064.766-.07.166-.003.335-.006.498.025.125.024.252.059.36.124.074.044.141.103.189.173.025.054.046.11.066.165.932-.346 1.879-.765 2.599-1.443 1.064-1.004 1.91-2.315 2.329-3.713.227-.759.266-1.612.05-2.374-.133-.472-.339-.775-.798-1.238-.94-.945-2.307-1.53-3.636-1.682A7.096 7.096 0 0 0 16.651 6zm-6.315 2.096c-.191.134-.382.272-.572.412l.572-.412zm4.02.893c.605-.002.94.09.94.09s-.994.092-1.546.19c-.438.077-1.141.212-1.69.396-1.069.36-2.086.863-3.09 1.375-.772.393-1.512.848-2.25 1.3-.505.309-1.49.964-1.49.964s.84-1.078 3.073-2.324c.638-.356 1.29-.69 1.959-.987a13.738 13.738 0 0 1 1.6-.619 9.84 9.84 0 0 1 2.219-.378c.097-.004.19-.007.276-.007zm-7.661 1.028c-.198.002-.367.232-.472.406-.133.223-.192.605-.22.911.429-.364.856-.703 1.153-.932-.115-.191-.258-.357-.42-.382a.257.257 0 0 0-.041-.003zm8.636.974s-1.865.703-2.791 1.07c-1.068.423-2.131.857-3.188 1.306-.739.314-1.473.64-2.204.972-.671.307-2.004.943-2.004.943s1.135-.923 3.239-1.837c1.228-.533 2.055-1 3.377-1.428.617-.2 1.226-.425 1.85-.603.567-.162 1.721-.423 1.721-.423zm.647 1.88s-.261.31-.846.694c-.292.192-.548.393-.835.57-.372.227-.753.44-1.145.63-.487.236-.992.433-1.496.63-.493.195-.99.383-1.495.544-.623.199-1.252.383-1.892.52-.465.1-1.408.223-1.408.223s1.164-.392 1.744-.594c.612-.214 1.192-.416 1.83-.655.661-.248 1.133-.429 1.695-.654.459-.185.921-.363 1.37-.571.343-.16.676-.34 1.01-.52a95.369 95.369 0 0 0 1.468-.817zm1.355 1.214s-.015.192-.507.692a4.775 4.775 0 0 1-.77.599c-.863.528-1.323.663-1.323.663s.852-.554 1.264-.85c.243-.174.482-.356.712-.546.215-.179.624-.558.624-.558zM4.1 15.915c-.29.13-.639.29-.868.412-.424.225-1.259.62-1.231.748.042.196.987-.183 1.48-.28.313-.062.624-.127.936-.193a3.99 3.99 0 0 1-.317-.687zm11.552.314c-.125 0-.26.008-.422.026-.499.055-.634.099-1.033.228-.142.046-.226.12-.337.18-.2.11-.39.242-.598.334-.3.133-.62.218-.934.312-.26.079-.296.094-.785.21-.085.02-.005.158.07.264 1.162.023 4.674.079 4.72-.115l.26-1.069.069-.024a.408.408 0 0 0-.037-.098.449.449 0 0 0-.18-.173c-.127-.062-.276-.052-.417-.062a5.094 5.094 0 0 0-.376-.013zm.635.287c.14.003.252.024.251.092-.001.148-.32.14-.467.155-.944.093-1.275.077-1.912.08-.123 0-.367-.013-.367-.013s.613-.144 1.157-.21c.317-.037.626-.077.93-.087.104-.003.269-.019.408-.017zm-.723.588c.114-.002.227.002.34.017.088.012.188.017.257.074.03.025.066.08.054.105-.025.053-.12.056-.322.07-.243.016-.479.035-.719.042-.594.018-1.783-.003-1.783-.003s.37-.098.56-.132c.42-.075.846-.13 1.273-.156.113-.007.227-.014.34-.017z"/>
</svg>
